<svg xmlns="http://www.w3.org/2000/svg" width="15.5" height="12.4" viewBox="0 0 15.5 12.4">
  <path id="icon_hidden" d="M7.75,9.687A3.474,3.474,0,0,1,4.289,6.464L1.749,4.5A8.072,8.072,0,0,0,.859,5.846a.783.783,0,0,0,0,.707,7.768,7.768,0,0,0,6.891,4.3A7.523,7.523,0,0,0,9.636,10.6L8.38,9.624a3.491,3.491,0,0,1-.63.063Zm7.6,1.407L12.673,9.025a8.022,8.022,0,0,0,1.968-2.472.783.783,0,0,0,0-.707A7.768,7.768,0,0,0,7.75,1.55a7.463,7.463,0,0,0-3.568.913L1.1.081A.387.387,0,0,0,.557.15L.082.762a.387.387,0,0,0,.068.544L14.4,12.318a.387.387,0,0,0,.544-.068l.476-.612a.387.387,0,0,0-.068-.544ZM10.9,7.655,9.949,6.92A2.295,2.295,0,0,0,7.137,3.967a1.154,1.154,0,0,1,.225.683,1.13,1.13,0,0,1-.037.242L5.542,3.514a3.447,3.447,0,0,1,2.208-.8A3.486,3.486,0,0,1,11.237,6.2,3.4,3.4,0,0,1,10.9,7.656Z" transform="translate(0 0)" fill="#7b7b7b"/>
</svg>
